<?xml version="1.0" encoding="utf-8"?>
<!-- Generator: Adobe Illustrator 22.1.0, SVG Export Plug-In . SVG Version: 6.00 Build 0)  -->
<svg version="1.1" id="Capa_1" xmlns="http://www.w3.org/2000/svg" xmlns:xlink="http://www.w3.org/1999/xlink" x="0px" y="0px"
	 viewBox="0 0 2361.2 636" style="enable-background:new 0 0 2361.2 636;" xml:space="preserve">
<style type="text/css">
	.st0{stroke:#000000;stroke-width:0.5;stroke-miterlimit:10;}
	.st1{font-family:'GreatVibes-Regular';}
	.st2{font-size:300px;}
	.st3{fill:#ED695F;}
	.st4{fill:#ED695F;stroke:#ED695F;stroke-width:5;stroke-miterlimit:10;}
	.st5{fill:#CCDFCB;}
</style>
<text transform="matrix(1 0 0 1 531.5937 450.1391)" class="st0 st1 st2">Fatima Darwich</text>
<g>
	<path class="st3" d="M392.8,331.5c0,0-63.7-11-92.1-51c0,0-27.2,28.4-120,29v48.7c0,0,66.1-8.1,120.5,27.2c0,0,44.6-46.9,91.6-48.7
		H290.2c0.2-1.3,0.4-2.5,0.6-3.8L392.8,331.5z"/>
	<g>
		<path class="st4" d="M97.6,545.9C87.5,411.4,80,276.8,75.6,142c-0.5-16.8-1-33.7-1.5-50.6l-0.6-25.3c-0.1-4.3-0.1-8.7,0.8-13.2
			c0.4-2.3,1.1-4.5,2.2-6.7s2.6-4.2,4.5-5.8c1.8-1.6,4-2.9,6.2-3.8c2.3-0.9,4.6-1.4,6.9-1.6c2.3-0.3,4.5-0.3,6.7-0.3l6.4,0.2
			c8.4,0.2,16.9,0.5,25.3,0.8c16.9,0.7,33.8,1.7,50.6,3.2s33.7,3.4,50.4,6.1c16.7,2.6,33.4,6,49.9,10.1s32.7,9.2,48.6,15.4
			c15.9,6.2,31.4,13.4,46.1,22c14.8,8.6,28.9,18.3,42,29.4c6.5,5.6,12.8,11.4,18.8,17.6c5.9,6.2,11.6,12.7,16.9,19.4
			c21.2,26.9,37.1,58,46.8,90.9c9.6,32.9,13.2,67.7,9.7,102c-0.8,8.6-2.3,17.1-4,25.5s-4,16.7-6.6,24.9c-2.6,8.2-5.7,16.2-9.2,24.1
			c-1.7,4-3.6,7.8-5.4,11.7c-2,3.8-3.9,7.7-6,11.4c-16.8,29.9-39.3,56.6-65.9,78.2c-6.7,5.4-13.5,10.5-20.7,15.2
			s-14.5,9.1-22.1,13.1c-1.9,1-3.8,2-5.7,2.9c-1.9,0.9-3.8,1.9-5.8,2.8l-5.8,2.6l-5.9,2.4c-2,0.8-4,1.5-6,2.3c-2,0.7-4,1.5-6,2.1
			l-6.1,2l-3,1c-1,0.3-2,0.7-3.1,0.9c-16.4,4.8-33.1,8.2-49.9,10.4c-16.8,2.3-33.7,3.6-50.6,4.4c-16.9,0.8-33.7,1.2-50.6,1.6
			c-8.4,0.2-16.8,0.5-25.3,0.8l-12.6,0.5l-12.6,0.6l0,0c-0.3,0-0.5-0.2-0.5-0.5s0.2-0.5,0.5-0.5L136,591l12.6-1
			c8.4-0.6,16.8-1.1,25.2-1.6c16.8-1,33.7-1.9,50.4-3.3c16.8-1.3,33.5-3,50-5.7s32.9-6.2,48.7-11.3c1-0.3,2-0.6,3-1l2.9-1l5.9-2.1
			c2-0.7,3.9-1.5,5.8-2.2c1.9-0.8,3.9-1.5,5.8-2.4c7.7-3.2,15.1-6.9,22.4-10.8c7.3-3.9,14.3-8.4,21.2-13c6.9-4.6,13.4-9.7,19.8-15
			c25.4-21.2,46.9-47.2,62.8-76.2c16-29,26.3-61,29.7-93.8c3.5-32.8,0.3-66.3-8.8-98.1c-9.1-31.8-24-62-44.3-88.3
			c-5.1-6.5-10.5-12.8-16.1-18.9c-5.7-6-11.7-11.7-18-17.1c-12.6-10.8-26.2-20.4-40.5-28.9s-29.4-15.6-44.9-21.8S298.2,66.2,282,62
			c-16.2-4.2-32.6-7.6-49.1-10.4c-16.5-2.7-33.2-4.8-49.9-6.4c-16.7-1.6-33.5-2.7-50.3-3.5c-8.4-0.4-16.8-0.7-25.2-1l-6.3-0.2
			c-2,0-4,0-5.9,0.2c-3.8,0.4-7.3,1.5-10,3.9c-2.7,2.2-4.2,5.5-5,9.3c-0.8,3.8-0.8,7.9-0.8,12l0.4,25.3c0.3,16.8,0.7,33.7,1.1,50.5
			c3.1,134.8,9.2,269.5,18,404c0,0.3-0.2,0.5-0.5,0.5C97.9,546.4,97.7,546.2,97.6,545.9z"/>
	</g>
	<circle class="st5" cx="286.7" cy="333" r="6.8"/>
	<path class="st3" d="M172.5,309.4v48.7c0,0-7.5,2.3-9.9-10.4l-9.9,10.6v6.8h-12.2H91.4v-63.2h63.2l-1.2,7.5l10.4,9.3
		C163.8,318.7,164.4,309.4,172.5,309.4z"/>
	<rect x="292.4" y="331.7" class="st5" width="103.8" height="4.4"/>
</g>
</svg>
