<?xml version="1.0" encoding="utf-8"?>
<!-- Generator: Adobe Illustrator 22.1.0, SVG Export Plug-In . SVG Version: 6.00 Build 0)  -->
<svg version="1.1" id="Capa_1" xmlns="http://www.w3.org/2000/svg" xmlns:xlink="http://www.w3.org/1999/xlink" x="0px" y="0px"
	 viewBox="0 0 2361.2 636" style="enable-background:new 0 0 2361.2 636;" xml:space="preserve">
<style type="text/css">
	.st0{enable-background:new    ;}
	.st1{stroke:#000000;stroke-width:0.5;stroke-miterlimit:10;}
	.st2{fill:#ED695F;}
	.st3{fill:#ED695F;stroke:#ED695F;stroke-width:5;stroke-miterlimit:10;}
	.st4{fill:#CCDFCB;}
</style>
<g class="st0">
	<path class="st1" d="M832.5,267.1c-40.4-20-72.9-30-97.5-30s-45.2,7-61.8,21c-15.8,13.4-23.7,27.8-23.7,43.2c0,8,2.9,13.8,8.7,17.4
		c7.8,4.4,15.2,6.6,22.2,6.6c2.6,0,5.2-0.3,7.8-0.9c9.2-2.2,17-5.9,23.4-11.1c6.4-5.2,9.6-9.4,9.6-12.6c0-3.2,0.9-5.4,2.9-6.6
		c1.9-1.2,2.8-0.8,2.8,1.2c0,1.2-0.3,2.6-0.9,4.2c-4.2,14.2-14,23.9-29.4,29.1c-6.6,2.2-13.4,3.3-20.4,3.3c-7,0-13.9-2.1-20.7-6.3
		c-12.8-7.2-19.2-18.2-19.2-33c0-17.8,8.2-34,24.6-48.6c16.4-14.6,36.4-21.9,60-21.9c11.6,0,23.3,1.7,35.1,5.1
		c29.6,8,56.4,19.6,80.4,34.8c6.2-6.8,12.6-10.2,19.2-10.2c7.4,0,11.2,2.5,11.4,7.5c0.2,2.2-0.5,3.2-2.1,3c-1-0.2-2.1-1-3.3-2.4
		c-1.6-0.6-3.1-0.9-4.5-0.9c-4.4,0-8.9,2.2-13.5,6.6c14.8,7.4,32.2,13.7,52.2,18.9c7.8,1.8,14,2.7,18.6,2.7c4.6,0,8.1-0.1,10.5-0.3
		c8.8-1,14.5-4.3,17.1-9.9c1.4-3,2.6-4.8,3.8-5.6c1.1-0.7,1.7-0.3,1.9,1.1c0,0.6,0,1.4,0,2.4c0,8.2-4.2,14.4-12.6,18.6
		c-5.2,2.6-10.1,3.9-14.7,3.9c-4.6,0-9.6-0.5-15-1.3c-5.4-0.9-12.4-2.7-21-5.5c-8.6-2.8-15.6-5.4-21-7.8c-5.4-2.4-10.7-4.9-15.9-7.5
		l-8.4-4.2c-10.4,11.8-21.5,32.1-33.3,60.9c-3.8,9.6-6,15.1-6.6,16.5c11.6,1.6,22.3,2.4,32.1,2.4c9.8,0,17.5-0.2,23.3-0.5
		c5.7-0.3,8.6,0.4,8.8,2c0.2,4.4-14.7,6.6-44.7,6.6c-9.6,0-17.3-0.4-23.1-1.2c-12.4,34-24.8,59.2-37.2,75.6
		c-5.2,6.8-11.7,14-19.5,21.5c-7.8,7.5-16.1,13.5-24.9,18.1c-19.8,10.8-41.9,16.2-66.3,16.2c-24.4,0-45.1-5.4-62.1-16.2
		c-25.8-16-38.7-39.1-38.7-69.3c0-10.2,1.7-21.1,5.1-32.7c2.4-7.6,6.8-14.3,13.4-20.1c6.5-5.8,11.9-9.3,16.4-10.7
		c4.4-1.3,6.4-1.5,6.1-0.8c-0.3,0.8-3.8,3.5-10.4,8.1c-13,9.4-20.7,21-23.1,34.8c-1,5-1.5,10.8-1.5,17.4c0,6.6,1.5,13.8,4.5,21.6
		c8.2,21.2,25.2,36.8,51,46.8c12.2,4.6,25.3,6.9,39.3,6.9c14,0,27.9-2.8,41.7-8.4c13.8-5.6,26.6-14,38.4-25.2c23-21.8,42-50,57-84.6
		l-19.2-0.3c-23.4,0-38.8,5.4-46.2,16.2c-1.8,2.2-3.3,2.8-4.3,1.7c-1.1-1.1-1.3-2.5-0.5-4.3c4.4-9.6,10.6-16.5,18.6-20.7
		c8-4.2,15.9-6.3,23.9-6.3c7.9,0,18.5,0.9,31.9,2.7c6.2-15.2,14-31,23.6-47.4C822,281.9,828.7,271.5,832.5,267.1z"/>
	<path class="st1" d="M939,393.3c-6.6,12.7-10.6,22.2-11.9,28.5c-1.3,6.3-1.9,11.4-1.9,15.3c0,3.9,1.5,5.8,4.5,5.8
		c3.8,0,8.5-3.5,14.1-10.5c8.2-10.2,16.3-23.5,24.3-39.9c0.8-1.8,1.7-2.8,2.7-3c1.6-0.6,2.4,0,2.4,1.8c0,1-0.3,2.2-0.9,3.6
		c-18.4,37.2-33.9,55.8-46.5,55.8c-5.8,0-10.5-2.8-14.1-8.4c-1.8-3-2.7-7-2.7-12c0-5,1-11.1,3-18.3c-16,25.8-29.8,38.7-41.4,38.7
		c-3.2,0-6.1-1-8.7-3c-6-4.2-9-11.4-9-21.6c0-19.6,8.5-39.5,25.5-59.7c9.6-11.2,21.4-18.5,35.4-21.9c3.8-1,7.4-1.5,10.8-1.5
		c9.2,0,17,3.2,23.4,9.6c2,2.2,2.6,4.3,1.8,6.3c-0.8,2-2.5,2.8-5.1,2.4c-2.2-7.2-7-10.8-14.4-10.8c-8.6,0-19.2,6.8-31.8,20.4
		c-7.2,8-13.9,17.4-20.1,28.2c-7.8,13-11.7,23.4-11.7,31.2s2.5,11.7,7.5,11.7c12,0,27.7-18.4,47.1-55.2c3.8-7.4,7-12.5,9.6-15.2
		c2.6-2.7,5.9-4,9.9-4c0.8,0,2.9,0.3,6.2,0.9c3.3,0.6,5.7,0.7,7.3,0.3C950.7,372.4,945.6,380.6,939,393.3z"/>
	<path class="st1" d="M960.6,426.1c0-16.6,8-44.4,24-83.4H969c-1,0-1.7-0.5-2-1.6c-0.3-1.1-0.2-2.2,0.3-3.3c0.5-1.1,1.2-1.7,2.3-1.7
		h18c7.2-15.8,13.9-29,20.1-39.6c6.2-10.6,11.9-17.7,17.1-21.5c5.2-3.7,8.9-5.5,11.3-5.5c2.3,0,3.9,0.2,5,0.6
		c4.6,2.2,6.9,6.8,6.9,13.7c0,6.9-2.3,15.3-6.9,25c-4.6,9.8-9.1,18.9-13.5,27.3h14.4c1,0,1.6,0.6,1.9,1.7c0.3,1.1,0.2,2.2-0.3,3.3
		c-0.5,1.1-1.3,1.6-2.3,1.6h-17.4c-11,18.6-24.3,35.1-39.9,49.5l-6.9,30.6c-0.6,2.6-0.9,5.2-0.9,7.6c0,2.5,0.7,5.1,2.1,7.7
		c1.4,2.6,3.6,3.9,6.6,3.9c3.4,0,7.2-1.2,11.4-3.6c9.6-7.2,20.2-22.3,31.8-45.3c0.8-1.8,1.7-2.9,2.9-3.3c1.1-0.4,1.7-0.2,2,0.8
		c0.2,0.9-0.1,2.4-0.9,4.3c-6.6,13.8-11.8,23.6-15.6,29.4c-10.8,17.4-22.3,26.1-34.5,26.1c-6.2,0-11.3-2.3-15.3-6.9
		C962.6,438.9,960.6,433.1,960.6,426.1z M1017,342.7h-14.1c-2.4,5.6-7.8,18.9-16.2,39.9C997.5,371.4,1007.6,358.1,1017,342.7z
		 M1020.9,336.1c13.2-23.6,19.8-40,19.8-49.2c0-4-0.7-6-2.1-6c-2.2,0-5.5,3.2-10,9.6c-4.5,6.4-12.1,21.6-22.6,45.6H1020.9z"/>
	<path class="st1" d="M1039.8,443.5c3.8,0,7.8-1.9,12-5.7c7.4-7.4,16.8-22.5,28.2-45.3c1.4-3,2.8-3.9,4.2-2.7c0.4,0.4,0.6,1,0.6,2
		c0,0.9-0.8,3.1-2.4,6.6c-1.6,3.5-3.1,6.7-4.4,9.5c-1.3,2.8-3.8,7.3-7.5,13.6c-3.7,6.3-7,11.2-10,14.6c-8.2,9.4-16,14.1-23.3,14.1
		c-7.3,0-12.6-2.2-15.8-6.6c-3.2-4.4-4.8-9.3-4.8-14.7c0-5.4,1.3-11.3,3.9-17.7l19.2-48.9c0.4-1.2,0.6-2.8,0.6-4.8
		c0-2-1.2-4.6-3.6-7.8l16.5-0.3c4.6,0,7.3,0.9,8.1,2.5c0.8,1.7,0.2,4.3-1.8,8l-24,56.1c-3.4,7.4-5.1,13.7-5.1,18.9
		C1030.5,440.6,1033.6,443.5,1039.8,443.5z M1069.2,333.4c-2.8,2.4-5.9,3.6-9.3,3.6c-3.4,0-6.1-1.2-8.1-3.6c-2-2.4-2.8-5.3-2.4-8.7
		c0.6-3.4,2.3-6.3,5.1-8.7c2.8-2.4,5.9-3.6,9.3-3.6c3.4,0,6.2,1.2,8.3,3.6c2.1,2.4,2.9,5.3,2.3,8.7
		C1073.7,328.1,1072,331,1069.2,333.4z"/>
	<path class="st1" d="M1222.2,351.7c-24.4,43.4-36.6,71.4-36.6,84c0,5.6,1.9,8.4,5.7,8.4c4.8,0,10.3-3.6,16.5-10.8
		c9.4-11.4,17.6-25.1,24.6-41.1c1.2-2.8,2.4-3.9,3.6-3.3c1.2,0.6,1.8,1.4,1.8,2.4c0,1-1,3.5-3,7.5c-2,4-3.6,7.2-4.8,9.6
		c-1.2,2.4-3.9,7-8,13.8c-4.1,6.8-7.6,11.8-10.5,15c-2.9,3.2-6.6,6.4-11.1,9.5c-4.5,3.1-9.6,4.7-15.3,4.7s-10.6-2.8-14.5-8.4
		c-1.8-2.6-2.7-6.1-2.7-10.6s1-9.9,3-16.4c2-6.4,7.5-16.8,16.5-31.2c2.2-3.6,3.3-6.4,3.3-8.5c0-2.1-1.7-3.1-5-3.1s-9.3,4-17.8,12
		c-8.6,8-17.7,18.8-27.2,32.4c-9.5,13.6-15.1,24.5-17,32.7c-3.4,0-5.9-1.4-7.5-4.2c-1.6-2.8-2.4-5.2-2.4-7.2
		c0-8.2,5.5-23.8,16.5-46.8c3.6-7.6,5.5-12.8,5.7-15.5c0.2-2.7-0.2-4.1-1.1-4.2c-0.9-0.1-2.2,0.3-3.8,1c-3.6,1.8-9.1,6.2-16.5,13.2
		c-14,12.8-27.8,32.3-41.4,58.5c-1,2.2-2.3,3.6-3.8,4c-1.5,0.5-4.5,0.9-8.9,1c-4.4,0.2-7.3,0.7-8.7,1.5c3.6-7,9.9-20.1,18.9-39.3
		c16.2-34.4,27-54.2,32.4-59.4c2.4-2.4,5.7-3.6,9.9-3.6c0.8,0,2.9,0.3,6.2,0.9c3.3,0.6,5.7,0.7,7.3,0.3c-7.4,4-19.5,22.8-36.3,56.4
		c9.4-11.6,16.1-19.2,20.3-22.8c4.1-3.6,7.1-6.3,9.2-8.1c2-1.8,3.5-3.2,4.6-4.2c1.1-1,2.7-2.4,4.8-4.4c2.1-1.9,3.7-3.3,4.8-4.2
		c1.1-0.9,2.6-2.1,4.6-3.8c2-1.6,3.5-2.6,4.7-3.2c1.1-0.5,2.6-1.3,4.5-2.5c1.9-1.2,3.3-1.8,4.2-1.8c0.9,0,2.1-0.2,3.8-0.8
		c1.6-0.5,2.7-0.3,3.3,0.4c4,1.6,6,4.1,6,7.5c0,3-3.4,10.7-10.2,23.1c-6.8,12.4-11.2,20.6-13.2,24.6c8.8-11,17.2-20,25.2-27.1
		c8-7.1,17.4-13.7,28.4-19.7c10.9-6,18.8-9,23.8-9C1220.4,351.1,1221.4,351.3,1222.2,351.7z"/>
	<path class="st1" d="M1308.3,393.3c-6.6,12.7-10.6,22.2-11.8,28.5c-1.3,6.3-2,11.4-2,15.3c0,3.9,1.5,5.8,4.5,5.8
		c3.8,0,8.5-3.5,14.1-10.5c8.2-10.2,16.3-23.5,24.3-39.9c0.8-1.8,1.7-2.8,2.7-3c1.6-0.6,2.4,0,2.4,1.8c0,1-0.3,2.2-0.9,3.6
		c-18.4,37.2-33.9,55.8-46.5,55.8c-5.8,0-10.5-2.8-14.1-8.4c-1.8-3-2.7-7-2.7-12c0-5,1-11.1,3-18.3c-16,25.8-29.8,38.7-41.4,38.7
		c-3.2,0-6.1-1-8.7-3c-6-4.2-9-11.4-9-21.6c0-19.6,8.5-39.5,25.5-59.7c9.6-11.2,21.4-18.5,35.4-21.9c3.8-1,7.4-1.5,10.8-1.5
		c9.2,0,17,3.2,23.4,9.6c2,2.2,2.6,4.3,1.8,6.3c-0.8,2-2.5,2.8-5.1,2.4c-2.2-7.2-7-10.8-14.4-10.8c-8.6,0-19.2,6.8-31.8,20.4
		c-7.2,8-13.9,17.4-20.1,28.2c-7.8,13-11.7,23.4-11.7,31.2s2.5,11.7,7.5,11.7c12,0,27.7-18.4,47.1-55.2c3.8-7.4,7-12.5,9.6-15.2
		c2.6-2.7,5.9-4,9.9-4c0.8,0,2.9,0.3,6.2,0.9c3.3,0.6,5.7,0.7,7.3,0.3C1320,372.4,1314.9,380.6,1308.3,393.3z"/>
	<path class="st1" d="M1510.5,439.3c-18.6,15-39.2,22.5-61.8,22.5c-25.8,0-41.7-7.2-47.7-21.6c-1.4-3.4-2.1-7.3-2.1-11.8
		s2.3-9.3,6.9-14.5c7.2-8.2,17.2-12.3,30-12.3c8.6,0,17.3,1.6,26,4.6c8.7,3.1,24.2,10.6,46.3,22.4c10-9.6,20-22.4,30-38.4
		c10-16,18.6-31.4,26-46.3c7.3-14.9,16.2-31.1,26.7-48.7c10.5-17.6,20.9-32.2,31.3-43.8c-22.4-13.4-46.2-20.1-71.4-20.1
		c-10.4,0-21,1.1-31.8,3.3c-31,6.6-54.6,20.1-70.8,40.5c-10,12.4-15,24.2-15,35.4c0,15.2,7.3,25.1,21.9,29.7
		c5.2,1.4,9.7,2.1,13.5,2.1c3.8,0,8-0.6,12.8-1.8c4.7-1.2,9.3-4,14-8.4c8.8-8.8,13.5-17,14.1-24.6c0.2-1.8,1.4-2.4,3.5-2
		c2.1,0.5,2.9,2.1,2.5,4.7c-2,14.6-9.7,25.7-23.1,33.3c-8.2,4.4-16.4,6.6-24.6,6.6l-15.6-2.7c-15.2-5.2-25.2-14.9-30-29.1
		c-2-5.4-3-10.8-3-16.2c0-11,4.1-21.9,12.3-32.7c17.6-23.6,48.8-38.7,93.6-45.3c8.8-1.2,17.5-1.8,26.1-1.8
		c27.8,0,54.3,6.6,79.5,19.8c7.8-9,15-15.8,21.6-20.5c6.6-4.7,11.9-7,15.9-7c2.2,0,3.5,0.5,3.9,1.3c0.4,0.9,0.3,1.6-0.2,2.1
		c-0.5,0.5-1.2,0.8-2,0.8c-3.4,0-7.8,3.6-13.2,10.8c-5.4,7.2-9.8,13.9-13.2,20.1c21.4,14.2,37.7,32.4,48.9,54.6
		c9,17.8,13.5,37.2,13.5,58.2c0,26-6.2,46.7-18.6,62.1c-10.2,12.6-22.6,21.5-37.2,26.7c-17.4,6.2-34.6,9.3-51.6,9.3
		C1564,460.3,1534.7,453.3,1510.5,439.3z M1500.3,434.5c-23.4-11.2-38.2-17.9-44.4-20.1c-6.2-2.2-12.3-3.3-18.2-3.3
		c-5.9,0-10.6,2.2-14.1,6.6c-3.5,4.4-5.3,8.4-5.3,11.9c0,3.5,0.8,6.9,2.4,10c4.2,8.6,12.8,12.9,25.8,12.9
		C1465.8,452.5,1483.7,446.5,1500.3,434.5z M1517.7,433.9c20.2,12,43.9,18,71.1,18c31.6,0,56.8-9,75.6-27
		c15-14.6,22.5-34.8,22.5-60.6c0-18.4-3.6-35.7-10.8-51.9c-9-20.6-22.3-37.8-39.9-51.6c-5.8,9-17,27.1-33.5,54.5
		c-16.5,27.3-30.5,49.5-41.8,66.4c-11.4,17-20.4,29.1-27,36.2C1527.3,425,1521.9,430.3,1517.7,433.9z"/>
	<path class="st1" d="M1795.2,393.3c-6.6,12.7-10.6,22.2-11.8,28.5c-1.3,6.3-2,11.4-2,15.3c0,3.9,1.5,5.8,4.5,5.8
		c3.8,0,8.5-3.5,14.1-10.5c8.2-10.2,16.3-23.5,24.3-39.9c0.8-1.8,1.7-2.8,2.7-3c1.6-0.6,2.4,0,2.4,1.8c0,1-0.3,2.2-0.9,3.6
		c-18.4,37.2-33.9,55.8-46.5,55.8c-5.8,0-10.5-2.8-14.1-8.4c-1.8-3-2.7-7-2.7-12c0-5,1-11.1,3-18.3c-16,25.8-29.8,38.7-41.4,38.7
		c-3.2,0-6.1-1-8.7-3c-6-4.2-9-11.4-9-21.6c0-19.6,8.5-39.5,25.5-59.7c9.6-11.2,21.4-18.5,35.4-21.9c3.8-1,7.4-1.5,10.8-1.5
		c9.2,0,17,3.2,23.4,9.6c2,2.2,2.6,4.3,1.8,6.3c-0.8,2-2.5,2.8-5.1,2.4c-2.2-7.2-7-10.8-14.4-10.8c-8.6,0-19.2,6.8-31.8,20.4
		c-7.2,8-13.9,17.4-20.1,28.2c-7.8,13-11.7,23.4-11.7,31.2s2.5,11.7,7.5,11.7c12,0,27.7-18.4,47.1-55.2c3.8-7.4,7-12.5,9.6-15.2
		c2.6-2.7,5.9-4,9.9-4c0.8,0,2.9,0.3,6.2,0.9c3.3,0.6,5.7,0.7,7.3,0.3C1806.9,372.4,1801.8,380.6,1795.2,393.3z"/>
	<path class="st1" d="M1864.8,329.8c0,9-5.7,17.5-17.1,25.5c4,0.2,9.3,0.3,16,0.3c6.7,0,15.2-0.5,25.4-1.5c0.4,0.6,0.6,2.2,0.6,4.8
		c0,2.6-1.2,6.5-3.6,11.5c-2.4,5.1-4.6,9.5-6.5,13.2c-1.9,3.7-3.7,7.2-5.4,10.5c-1.7,3.3-3.6,7.4-5.7,12.2
		c-2.1,4.8-3.9,9.2-5.3,13.2c-5,15.2-4.2,22.8,2.4,22.8c8.4,0,20.8-16.7,37.2-50.1c1.4-2.6,2.5-3.6,3.5-3c0.9,0.6,1.3,1.4,1.3,2.3
		c0,0.9-1.3,4-3.9,9.3c-2.6,5.3-5.4,10.8-8.4,16.3c-3,5.6-7.7,12.1-14.1,19.5c-7.6,9.2-14.9,13.8-21.9,13.8
		c-7.8,0-13.2-4.7-16.2-14.1c-0.6-1.8-0.9-4.5-0.9-8.1c0-3.6,1.1-8.4,3.5-14.4c2.3-6,5.9-13.3,11-21.9c5-8.6,7.8-13.6,8.4-15.1
		c0.6-1.5,0.9-2.9,0.9-4.4c0-6.2-8-9.5-24-9.9l-3.6,9.6c-12.6,33-24.7,55.1-36.3,66.3c-2,1.8-3,1.2-3-1.8c0-0.6,0.2-1.3,0.6-2.1
		c11.2-14.8,20.9-32.3,29.1-52.5c8.2-20.2,13.9-39.4,17.1-57.6c1.2-6.2,4-9.3,8.4-9.3c4.4,0,7.6,2.8,9.6,8.4
		C1864.5,325.3,1864.8,327.4,1864.8,329.8z"/>
	<path class="st1" d="M2036.1,345.4l-1.5,5.1c-8.8,29.2-16.8,50.6-24,64.2c-13,24-27.2,36-42.6,36c-7.2,0-12.1-1.8-14.7-5.5
		c-2.6-3.7-4-7-4.3-10s-0.5-5.6-0.5-7.8c0-5.4,0.9-11.3,2.7-17.7c-14.8,27-28.1,40.5-39.9,40.5c-4.4,0-8.4-1.2-12-3.8
		c-3.6-2.5-5.8-5.8-6.6-10c-0.6-1-0.9-2.2-0.9-3.6c0-8.6,3.7-19,11.1-31.2c-3.2,0-4.1-1.6-2.7-4.8l5.4-10.5
		c9.8-19.2,15.4-30.2,16.8-33c2-4.2,5.9-6.3,11.7-6.3h18.3c-7.2,5.2-14.5,15.3-21.8,30.2c-7.3,14.9-12.9,26.5-16.8,35
		c-3.9,8.4-5.9,14.8-5.9,19.3s0.8,7.7,2.3,9.6c1.5,1.9,3.5,2.9,5.9,2.9c2.4,0,5.3-1.7,8.7-5c3.4-3.3,6.5-6.8,9.3-10.7
		c2.8-3.8,5.6-8.1,8.5-12.9c2.9-4.8,5.5-9.3,8-13.7c2.4-4.3,5-9.3,7.8-15c2.8-5.7,5-10.1,6.6-13.3c5.8-11.6,9-18.3,9.6-20.1
		c1.8-4.2,5.6-6.3,11.4-6.3h18.3c-0.4,0.4-1.5,1.2-3.3,2.4c-4,2.6-6.9,5.5-8.7,8.7c-9,15-15.3,27.1-18.9,36.3
		c-8,20.4-12,33.5-12,39.3c0,7.2,2.7,10.9,8.1,11.1c0.4,0,0.9,0,1.5,0c14.4,0,28.6-17.4,42.6-52.2c-2.8-6-4.2-11.5-4.2-16.5
		c0-5,0.6-9.5,1.8-13.5c3.4-11.6,8.8-18.7,16.2-21.3c1.4-0.6,2.7-0.9,3.9-0.9C2034.5,340.3,2036.1,342,2036.1,345.4z"/>
	<path class="st1" d="M2056.8,443.5c3.8,0,7.8-1.9,12-5.7c7.4-7.4,16.8-22.5,28.2-45.3c1.4-3,2.8-3.9,4.2-2.7c0.4,0.4,0.6,1,0.6,2
		c0,0.9-0.8,3.1-2.4,6.6c-1.6,3.5-3.1,6.7-4.4,9.5c-1.3,2.8-3.8,7.3-7.5,13.6c-3.7,6.3-7,11.2-10,14.6c-8.2,9.4-16,14.1-23.3,14.1
		c-7.3,0-12.6-2.2-15.7-6.6c-3.2-4.4-4.8-9.3-4.8-14.7c0-5.4,1.3-11.3,3.9-17.7l19.2-48.9c0.4-1.2,0.6-2.8,0.6-4.8
		c0-2-1.2-4.6-3.6-7.8l16.5-0.3c4.6,0,7.3,0.9,8.1,2.5c0.8,1.7,0.2,4.3-1.8,8l-24,56.1c-3.4,7.4-5.1,13.7-5.1,18.9
		C2047.5,440.6,2050.6,443.5,2056.8,443.5z M2086.2,333.4c-2.8,2.4-5.9,3.6-9.3,3.6c-3.4,0-6.1-1.2-8.1-3.6c-2-2.4-2.8-5.3-2.4-8.7
		c0.6-3.4,2.3-6.3,5.1-8.7c2.8-2.4,5.9-3.6,9.3-3.6c3.4,0,6.2,1.2,8.3,3.6c2.1,2.4,2.9,5.3,2.3,8.7
		C2090.7,328.1,2089,331,2086.2,333.4z"/>
	<path class="st1" d="M2152.5,381.1c7-8.4,10.5-15.5,10.5-21.3c0-5.8-2.4-8.7-7.2-8.7c-9.4,0-20.1,8.6-32.1,25.8
		c-3.8,5.4-7.5,12.5-11.1,21.3c-3.6,8.8-5.4,16.8-5.4,23.9c0,7.1,1.4,12.9,4.3,17.3c2.9,4.4,7.4,6.6,13.5,6.6c6.1,0,11.7-1.4,17-4.3
		c5.2-2.9,10.1-7.5,14.9-13.8c4.7-6.3,8.3-11.6,10.6-15.8c2.4-4.2,5.7-10.5,9.9-18.9c1.4-2.8,2.6-3.9,3.6-3.5c1,0.5,1.5,1.2,1.5,2.1
		c0,0.9-1.3,4.2-4,9.9s-5.4,11.1-8.1,16c-2.7,5-6.6,10.6-11.6,16.8c-9,11.2-21.3,16.8-36.9,16.8c-11.2,0-19.3-2.7-24.2-8.3
		c-4.9-5.5-7.3-11.9-7.3-19c0-8.8,2.1-18.4,6.5-28.8c4.3-10.4,9.2-19.4,14.8-27c11.6-15.8,25-23.7,40.2-23.7c7.4,0,12.8,1.8,16,5.3
		c3.3,3.5,5,7.6,5,12.1c0,6.8-2.8,12.6-8.4,17.4c-2.8,2.6-5.2,3.9-7,3.9C2155.5,383.2,2153.9,382.5,2152.5,381.1z"/>
	<path class="st1" d="M2228.7,436.6c0,5.6,2,8.4,6,8.4c9.4,0,22.7-17.6,39.9-52.8c1.4-2.8,2.6-3.9,3.8-3.3c1.1,0.6,1.6,1.4,1.6,2.4
		c0,1-1.2,3.9-3.5,8.5c-2.3,4.7-4.6,9.2-6.9,13.5c-2.3,4.3-5.7,10-10,17c-9.2,14-19,21-29.4,21c-6.8,0-12.2-2.8-16.2-8.4
		c-1.8-2.6-2.7-6.1-2.7-10.6s1-9.9,3-16.4c2-6.4,7.5-16.8,16.5-31.2c2.2-3.6,3.3-6.4,3.3-8.5c0-2.1-1.7-3.1-5.1-3.1
		c-3.4,0-9.9,4.5-19.5,13.5c-14.4,13.2-28.4,33-42,59.4c-1.4,3-5.1,4.5-11.1,4.5c-5.4,0.4-8.8,1-10.2,1.8
		c38-79,65.5-134.1,82.5-165.3c3.8-7,7.1-11.9,10-14.7c2.9-2.8,6.3-4.2,10.4-4.2c1,0,3.1,0.3,6.3,0.8c3.2,0.5,5.6,0.7,7.2,0.4
		c-6,6.2-16.8,23.4-32.3,51.4c-15.5,28.1-30.4,56.7-44.6,85.7c9.4-11.8,17.9-21,25.4-27.6c7.5-6.6,16.6-12.8,27.5-18.8
		c10.8-5.9,18.7-8.8,23.7-8.8c1.2,0,2.3,0.2,3.3,0.6C2241,394.9,2228.7,423.2,2228.7,436.6z"/>
</g>
<g>
	<path class="st2" d="M392.8,331.5c0,0-63.7-11-92.1-51c0,0-27.2,28.4-120,29v48.7c0,0,66.1-8.1,120.5,27.2c0,0,44.6-46.9,91.6-48.7
		H290.2c0.2-1.3,0.4-2.5,0.6-3.8L392.8,331.5z"/>
	<g>
		<path class="st3" d="M97.6,545.9C87.5,411.4,80,276.8,75.6,142c-0.5-16.8-1-33.7-1.5-50.6l-0.6-25.3c-0.1-4.3-0.1-8.7,0.8-13.2
			c0.4-2.3,1.1-4.5,2.2-6.7s2.6-4.2,4.5-5.8c1.8-1.6,4-2.9,6.2-3.8c2.3-0.9,4.6-1.4,6.9-1.6c2.3-0.3,4.5-0.3,6.7-0.3l6.4,0.2
			c8.4,0.2,16.9,0.5,25.3,0.8c16.9,0.7,33.8,1.7,50.6,3.2s33.7,3.4,50.4,6.1c16.7,2.6,33.4,6,49.9,10.1s32.7,9.2,48.6,15.4
			c15.9,6.2,31.4,13.4,46.1,22c14.8,8.6,28.9,18.3,42,29.4c6.5,5.6,12.8,11.4,18.8,17.6c5.9,6.2,11.6,12.7,16.9,19.4
			c21.2,26.9,37.1,58,46.8,90.9c9.6,32.9,13.2,67.7,9.7,102c-0.8,8.6-2.3,17.1-4,25.5s-4,16.7-6.6,24.9c-2.6,8.2-5.7,16.2-9.2,24.1
			c-1.7,4-3.6,7.8-5.4,11.7c-2,3.8-3.9,7.7-6,11.4c-16.8,29.9-39.3,56.6-65.9,78.2c-6.7,5.4-13.5,10.5-20.7,15.2
			s-14.5,9.1-22.1,13.1c-1.9,1-3.8,2-5.7,2.9c-1.9,0.9-3.8,1.9-5.8,2.8l-5.8,2.6l-5.9,2.4c-2,0.8-4,1.5-6,2.3c-2,0.7-4,1.5-6,2.1
			l-6.1,2l-3,1c-1,0.3-2,0.7-3.1,0.9c-16.4,4.8-33.1,8.2-49.9,10.4c-16.8,2.3-33.7,3.6-50.6,4.4c-16.9,0.8-33.7,1.2-50.6,1.6
			c-8.4,0.2-16.8,0.5-25.3,0.8l-12.6,0.5l-12.6,0.6l0,0c-0.3,0-0.5-0.2-0.5-0.5s0.2-0.5,0.5-0.5L136,591l12.6-1
			c8.4-0.6,16.8-1.1,25.2-1.6c16.8-1,33.7-1.9,50.4-3.3c16.8-1.3,33.5-3,50-5.7s32.9-6.2,48.7-11.3c1-0.3,2-0.6,3-1l2.9-1l5.9-2.1
			c2-0.7,3.9-1.5,5.8-2.2c1.9-0.8,3.9-1.5,5.8-2.4c7.7-3.2,15.1-6.9,22.4-10.8c7.3-3.9,14.3-8.4,21.2-13c6.9-4.6,13.4-9.7,19.8-15
			c25.4-21.2,46.9-47.2,62.8-76.2c16-29,26.3-61,29.7-93.8c3.5-32.8,0.3-66.3-8.8-98.1c-9.1-31.8-24-62-44.3-88.3
			c-5.1-6.5-10.5-12.8-16.1-18.9c-5.7-6-11.7-11.7-18-17.1c-12.6-10.8-26.2-20.4-40.5-28.9s-29.4-15.6-44.9-21.8S298.2,66.2,282,62
			c-16.2-4.2-32.6-7.6-49.1-10.4c-16.5-2.7-33.2-4.8-49.9-6.4c-16.7-1.6-33.5-2.7-50.3-3.5c-8.4-0.4-16.8-0.7-25.2-1l-6.3-0.2
			c-2,0-4,0-5.9,0.2c-3.8,0.4-7.3,1.5-10,3.9c-2.7,2.2-4.2,5.5-5,9.3c-0.8,3.8-0.8,7.9-0.8,12l0.4,25.3c0.3,16.8,0.7,33.7,1.1,50.5
			c3.1,134.8,9.2,269.5,18,404c0,0.3-0.2,0.5-0.5,0.5C97.9,546.4,97.7,546.2,97.6,545.9z"/>
	</g>
	<circle class="st4" cx="286.7" cy="333" r="6.8"/>
	<path class="st2" d="M172.5,309.4v48.7c0,0-7.5,2.3-9.9-10.4l-9.9,10.6v6.8h-12.2H91.4v-63.2h63.2l-1.2,7.5l10.4,9.3
		C163.8,318.7,164.4,309.4,172.5,309.4z"/>
	<rect x="292.4" y="331.7" class="st4" width="103.8" height="4.4"/>
</g>
</svg>
